<svg width="22" height="22" viewBox="0 0 22 22" fill="none" xmlns="http://www.w3.org/2000/svg">
<path d="M1 21H21M3.22222 21V3.22222C3.22222 2.63285 3.45635 2.06762 3.8731 1.65087C4.28984 1.23413 4.85507 1 5.44444 1H16.5556C17.1449 1 17.7102 1.23413 18.1269 1.65087C18.5437 2.06762 18.7778 2.63285 18.7778 3.22222V21M7.66667 21V16.5556C7.66667 15.9662 7.90079 15.401 8.31754 14.9842C8.73429 14.5675 9.29952 14.3333 9.88889 14.3333H12.1111C12.7005 14.3333 13.2657 14.5675 13.6825 14.9842C14.0992 15.401 14.3333 15.9662 14.3333 16.5556V21M8.77778 7.66667H13.2222M11 5.44444V9.88889" stroke="#5861E2" stroke-width="2" stroke-linecap="round" stroke-linejoin="round"/>
</svg>
