<svg width="12" height="12" viewBox="0 0 12 12" fill="none" xmlns="http://www.w3.org/2000/svg">
<path d="M5.994 0C2.682 0 0 2.688 0 6C0 9.312 2.682 12 5.994 12C9.312 12 12 9.312 12 6C12 2.688 9.312 0 5.994 0ZM8.4 8.4C8.34449 8.45562 8.27856 8.49975 8.20597 8.52986C8.13339 8.55997 8.05558 8.57547 7.977 8.57547C7.89842 8.57547 7.82061 8.55997 7.74803 8.52986C7.67544 8.49975 7.60951 8.45562 7.554 8.4L5.58 6.426C5.52331 6.37043 5.47821 6.30416 5.44731 6.23104C5.41641 6.15791 5.40033 6.07938 5.4 6V3.6C5.4 3.27 5.67 3 6 3C6.33 3 6.6 3.27 6.6 3.6V5.754L8.4 7.554C8.634 7.788 8.634 8.166 8.4 8.4Z" fill="#30D058"/>
</svg>
